<svg id="visual" viewBox="0 0 900 600" width="900" height="600" xmlns="http://www.w3.org/2000/svg" xmlns:xlink="http://www.w3.org/1999/xlink" version="1.1"><rect x="0" y="0" width="900" height="600" fill="#FFFFFF"></rect><path d="M0 419L21.5 414C43 409 86 399 128.8 402.8C171.7 406.7 214.3 424.3 257.2 440.3C300 456.3 343 470.7 385.8 481.5C428.7 492.3 471.3 499.7 514.2 495.2C557 490.7 600 474.3 642.8 457.8C685.7 441.3 728.3 424.7 771.2 423.5C814 422.3 857 436.7 878.5 443.8L900 451L900 601L878.5 601C857 601 814 601 771.2 601C728.3 601 685.7 601 642.8 601C600 601 557 601 514.2 601C471.3 601 428.7 601 385.8 601C343 601 300 601 257.2 601C214.3 601 171.7 601 128.8 601C86 601 43 601 21.5 601L0 601Z" fill="#0066FF" stroke-linecap="round" stroke-linejoin="miter"></path></svg>